<?xml version="1.0" standalone="no"?>
<!DOCTYPE svg PUBLIC "-//W3C//DTD SVG 20010904//EN"
 "http://www.w3.org/TR/2001/REC-SVG-20010904/DTD/svg10.dtd">
<svg version="1.0" xmlns="http://www.w3.org/2000/svg"
 width="375.000000pt" height="375.000000pt" viewBox="0 0 375.000000 375.000000"
 preserveAspectRatio="xMidYMid meet">
<metadata>
Created by potrace 1.11, written by Peter Selinger 2001-2013
</metadata>
<g transform="translate(0.000000,375.000000) scale(0.100000,-0.100000)"
fill="#000000" stroke="none">
<path d="M1371 3086 l-483 -483 118 -6 c208 -9 346 -68 484 -207 138 -137 192
-269 192 -469 1 -83 -4 -121 -22 -176 -79 -250 -254 -412 -508 -471 -37 -9
-136 -19 -220 -22 l-152 -7 540 -540 540 -540 545 545 c299 299 543 545 542
546 -1 1 -36 -7 -77 -18 -112 -31 -317 -30 -425 0 -345 99 -556 414 -515 772
20 177 79 299 205 425 146 146 311 209 536 203 l119 -3 -467 468 c-258 257
-468 467 -468 467 0 0 -218 -218 -484 -484z"/>
<path d="M2535 2317 c-138 -46 -224 -136 -259 -272 -53 -201 30 -397 202 -482
54 -26 65 -28 187 -28 121 0 134 2 185 27 74 36 128 94 151 160 l18 53 -195 3
-194 2 0 145 0 145 362 0 363 0 -122 122 -121 121 -63 -55 -62 -56 -56 38
c-90 61 -153 82 -261 86 -62 3 -109 -1 -135 -9z"/>
<path d="M843 2150 c4 -84 7 -252 7 -373 l0 -219 118 4 c105 3 125 7 177 32
109 54 173 145 197 277 21 121 -31 274 -117 345 -76 62 -126 77 -264 82 l-124
5 6 -153z"/>
<path d="M336 2051 l-179 -179 174 -181 174 -181 7 197 c5 109 7 271 5 361
l-2 162 -179 -179z"/>
<path d="M3368 1909 c-4 -106 -11 -160 -26 -206 -25 -80 -19 -77 116 59 l102
103 -94 94 -93 93 -5 -143z"/>
</g>
</svg>
