<?xml version="1.0" encoding="utf-8"?>
<!-- Generator: Adobe Illustrator 22.1.0, SVG Export Plug-In . SVG Version: 6.00 Build 0)  -->
<svg version="1.1" id="Layer_1" xmlns="http://www.w3.org/2000/svg" xmlns:xlink="http://www.w3.org/1999/xlink" x="0px" y="0px"
	 viewBox="0 0 397.4 411.1" style="enable-background:new 0 0 397.4 411.1;" xml:space="preserve">
<style type="text/css">
	.st0{display:none;fill:#3F3F3F;}
	.st1{fill:#001427;}
	.st2{fill:url(#SVGID_1_);}
	.st3{fill:url(#SVGID_2_);}
</style>
<rect x="-306.2" y="-309" class="st0" width="1048.6" height="1050"/>
<title>Artboard 4</title>
<g>
	<rect x="130.3" y="156" class="st1" width="133.8" height="135.1"/>
	<g>
		<radialGradient id="SVGID_1_" cx="198.7746" cy="220.5065" r="37.3831" gradientUnits="userSpaceOnUse">
			<stop  offset="0" style="stop-color:#FDFBFB"/>
			<stop  offset="1" style="stop-color:#EBEDEE"/>
		</radialGradient>
		<path class="st2" d="M198.8,257.9c20.7,0,37.4-16.8,37.4-37.4c-0.1-20.7-16.8-37.4-37.4-37.4c-20.7,0-37.4,16.8-37.4,37.4
			C161.4,241.3,178,257.9,198.8,257.9z"/>
		<radialGradient id="SVGID_2_" cx="198.7" cy="206.777" r="102.2321" gradientUnits="userSpaceOnUse">
			<stop  offset="0" style="stop-color:#FDFBFB"/>
			<stop  offset="1" style="stop-color:#EBEDEE"/>
		</radialGradient>
		<path class="st3" d="M287,139h-37.4l-5.3-14c-2.8-8-10.4-13.3-19-13.3H172c-8.5,0.1-16,5.4-19,13.2l-5.2,14h-37.4
			c-11.3,0-20.5,9.1-20.5,20.4v122.3c0.1,11,9,20.1,20,20.4l178-0.3c10.9-0.4,19.7-9.3,19.7-20.4v-122C307.4,148,298.2,139,287,139z
			 M198.8,169.5c28.2,0,51,22.8,51,51c-0.1,28.1-22.9,51-51,51c-28.2,0-51-22.8-51-51C147.7,192.3,170.6,169.5,198.8,169.5z"/>
	</g>
	<polygon class="st1" points="217.1,235.7 191.5,258 182.5,235.7 190.3,235.7 198.3,216.3 172.7,216.3 187.1,173.1 205.3,173.1 
		195.3,203 221.6,203 207.4,235.7 	"/>
</g>
</svg>
