<?xml version="1.0" encoding="utf-8"?>
<!-- Generator: Adobe Illustrator 22.1.0, SVG Export Plug-In . SVG Version: 6.00 Build 0)  -->
<svg version="1.1" id="Layer_1" xmlns="http://www.w3.org/2000/svg" xmlns:xlink="http://www.w3.org/1999/xlink" x="0px" y="0px"
	 viewBox="0 0 478 393" style="enable-background:new 0 0 478 393;" xml:space="preserve">
<style type="text/css">
	.st0{enable-background:new    ;}
	.st1{fill:#FFFFFF;}
</style>
<g>
	<g class="st0">
		<path class="st1" d="M21.8,257H73c26.3,0,43.5,15.9,43.5,39c0,21.4-10.8,33.5-29,38l33.1,45.5H83l-31.2-45.7v45.7h-30V257z
			 M75.9,310.1c6.7,0,11.2-6.9,11.2-14.1s-5.3-13.5-12-13.5H51.8v27.6H75.9z"/>
		<path class="st1" d="M123.2,257h81.1v26.5h-51v22.1h47.2v26.1h-47.2v22.1h53.3v25.7h-83.3V257z"/>
		<path class="st1" d="M213.1,257h51.2c25.1,0,39.8,18.6,39.8,39.2c0,22.9-17.2,39.2-39.8,39.2h-21.4v44.1h-29.8V257z M261.5,309.7
			c7.8,0,12-7.1,12-14.3c0-6.7-4.1-12.9-12-12.9h-18.6v27.2H261.5z"/>
		<path class="st1" d="M374.4,252.9c38.6,0,65.9,28.8,65.9,65.3s-27.4,65.3-65.9,65.3c-38.8,0-66-28.8-66-65.3
			S335.6,252.9,374.4,252.9z M374.4,355.2c21.6,0,35.5-16.3,35.5-37c0-20.6-13.9-37-35.5-37c-21.8,0-35.5,16.3-35.5,37
			C338.8,338.9,352.5,355.2,374.4,355.2z"/>
	</g>
	<g class="st0">
		<path class="st1" d="M49.3,113.6h56.4c27.6,0,43.8,20.4,43.8,43.1c0,25.2-18.9,43.1-43.8,43.1H82.1v48.5H49.3V113.6z M102.5,171.5
			c8.5,0,13.2-7.9,13.2-15.7c0-7.4-4.5-14.1-13.2-14.1H82.1v29.9H102.5z"/>
		<path class="st1" d="M226.5,109.1c42.4,0,72.5,31.7,72.5,71.9c0,40.2-30.1,71.9-72.5,71.9c-42.7,0-72.5-31.7-72.5-71.9
			C153.9,140.8,183.8,109.1,226.5,109.1z M226.5,221.6c23.8,0,39.1-18,39.1-40.6c0-22.7-15.3-40.6-39.1-40.6
			c-24,0-39.1,18-39.1,40.6C187.4,203.7,202.4,221.6,226.5,221.6z"/>
		<path class="st1" d="M312.9,113.6h56.4c27.6,0,43.8,20.4,43.8,43.1c0,25.2-18.9,43.1-43.8,43.1h-23.6v48.5h-32.8V113.6z
			 M366.2,171.5c8.5,0,13.2-7.9,13.2-15.7c0-7.4-4.5-14.1-13.2-14.1h-20.4v29.9H366.2z"/>
	</g>
</g>
</svg>
