<?xml version="1.0" encoding="utf-8"?>
<!-- Generator: Adobe Illustrator 22.1.0, SVG Export Plug-In . SVG Version: 6.00 Build 0)  -->
<svg version="1.1" id="Layer_1" xmlns="http://www.w3.org/2000/svg" xmlns:xlink="http://www.w3.org/1999/xlink" x="0px" y="0px"
	 viewBox="0 0 478 393" style="enable-background:new 0 0 478 393;" xml:space="preserve">
<style type="text/css">
	.st0{enable-background:new    ;}
	.st1{fill:#FFFFFF;}
</style>
<g>
	<g class="st0">
		<path class="st1" d="M103.5,253.8h35.9c18.5,0,30.5,11.2,30.5,27.4c0,15-7.6,23.5-20.4,26.7l23.2,31.9h-26.4l-21.9-32.1v32.1
			h-21.1V253.8z M141.5,291.1c4.7,0,7.9-4.8,7.9-9.9s-3.7-9.5-8.4-9.5h-16.4v19.4H141.5z"/>
		<path class="st1" d="M174.7,253.8h56.9v18.6h-35.8v15.5h33.1v18.3h-33.1v15.5h37.4v18h-58.5L174.7,253.8L174.7,253.8z"/>
		<path class="st1" d="M237.8,253.8h35.9c17.6,0,27.9,13.1,27.9,27.5c0,16.1-12.1,27.5-27.9,27.5h-15v31h-20.9V253.8L237.8,253.8z
			 M271.8,290.8c5.5,0,8.4-5,8.4-10c0-4.7-2.9-9.1-8.4-9.1h-13.1v19.1L271.8,290.8L271.8,290.8z"/>
		<path class="st1" d="M351,250.9c27.1,0,46.3,20.2,46.3,45.8c0,25.6-19.2,45.8-46.3,45.8c-27.2,0-46.3-20.2-46.3-45.8
			S323.8,250.9,351,250.9z M351,322.7c15.2,0,24.9-11.4,24.9-26c0-14.5-9.8-26-24.9-26c-15.3,0-24.9,11.4-24.9,26
			C326,311.3,335.6,322.7,351,322.7z"/>
	</g>
	<g class="st0">
		<path class="st1" d="M122.8,153.2h39.6c19.4,0,30.7,14.3,30.7,30.3c0,17.7-13.3,30.3-30.7,30.3h-16.6v34h-23V153.2z M160.2,193.8
			c6,0,9.3-5.5,9.3-11c0-5.2-3.2-9.9-9.3-9.9h-14.3v21L160.2,193.8L160.2,193.8z"/>
		<path class="st1" d="M247.2,150c29.8,0,50.9,22.3,50.9,50.5s-21.1,50.5-50.9,50.5c-30,0-50.9-22.3-50.9-50.5
			C196.2,172.3,217.2,150,247.2,150z M247.2,229c16.7,0,27.4-12.6,27.4-28.5c0-15.9-10.7-28.5-27.4-28.5
			c-16.8,0-27.4,12.6-27.4,28.5C219.7,216.4,230.3,229,247.2,229z"/>
		<path class="st1" d="M307.8,153.2h39.6c19.4,0,30.7,14.3,30.7,30.3c0,17.7-13.3,30.3-30.7,30.3h-16.6v34h-23V153.2z M345.2,193.8
			c6,0,9.3-5.5,9.3-11c0-5.2-3.2-9.9-9.3-9.9h-14.3v21L345.2,193.8L345.2,193.8z"/>
	</g>
</g>
</svg>
