<svg id="Layer_1" data-name="Layer 1" xmlns="http://www.w3.org/2000/svg" viewBox="0 0 148 129"><defs><style>.cls-1{fill:#fff;}.cls-2{fill:none;stroke:#fff;stroke-miterlimit:10;stroke-width:10px;}</style></defs><title>code-icon-wht</title><path class="cls-1" d="M30.43,79.73l25.77,12a5.07,5.07,0,0,0,2.11.46,5,5,0,0,0,5-5V87a5,5,0,0,0-2.9-4.54L44.3,75l16.12-7.49A5,5,0,0,0,63.32,63v-.13a5,5,0,0,0-5-5,4.92,4.92,0,0,0-2.1.47l-25.77,12a5,5,0,0,0-2.89,4.54v.36A5,5,0,0,0,30.43,79.73Z"/><path class="cls-1" d="M63.54,104.14a5.05,5.05,0,0,0,4.05,2h.13a5,5,0,0,0,4.76-3.48l17-52.58a5,5,0,0,0-4.76-6.54h-.13a5,5,0,0,0-4.77,3.48l-17,52.59A5,5,0,0,0,63.54,104.14Z"/><path class="cls-1" d="M89,63a5,5,0,0,0,2.9,4.54L108,75,91.86,82.5A5,5,0,0,0,89,87v.13a5,5,0,0,0,2.32,4.22,4.92,4.92,0,0,0,2.69.79,5,5,0,0,0,2.11-.47l25.76-12a5,5,0,0,0,2.9-4.54v-.35a5,5,0,0,0-2.9-4.54l-25.76-12a5,5,0,0,0-4.8.32A5,5,0,0,0,89,62.86V63Z"/><rect class="cls-2" x="8" y="7.58" width="133" height="113.83" rx="12" ry="12"/><circle class="cls-1" cx="93.67" cy="25.88" r="5.52"/><circle class="cls-1" cx="108.48" cy="25.88" r="5.52"/><circle class="cls-1" cx="123.29" cy="25.88" r="5.52"/></svg>